<svg width="28" height="28" viewBox="0 0 28 28" fill="none" xmlns="http://www.w3.org/2000/svg">
    <path d="M7.73994 18.9402C7.37545 19.3047 7.37545 19.8956 7.73994 20.2601C8.10443 20.6246 8.69538 20.6246 9.05987 20.2601L8.3999 19.6001L7.73994 18.9402ZM20.5332 7.4668H21.4666C21.4666 6.95133 21.0487 6.53346 20.5332 6.53346V7.4668ZM8.3999 19.6001L9.05987 20.2601L21.1932 8.12676L20.5332 7.4668L19.8733 6.80683L7.73994 18.9402L8.3999 19.6001ZM20.5332 7.4668H19.5999V14.4668H20.5332H21.4666V7.4668H20.5332ZM20.5332 7.4668V6.53346H13.9999V7.4668V8.40013H20.5332V7.4668ZM13.9999 7.4668V6.53346H13.0666V7.4668V8.40013H13.9999V7.4668Z" fill="black" fill-opacity="0.8"/>
    <path d="M26.0667 27C26.5821 27 27 26.5821 27 26.0667V23L23 27H26.0667Z" fill="black" fill-opacity="0.8"/>
</svg>
