<svg width="28" height="28" viewBox="0 0 28 28" fill="none" xmlns="http://www.w3.org/2000/svg">
    <path d="M11.8057 20.5934L6.59476 22.3278C6.35448 22.4078 6.09469 22.278 6.01469 22.0377C5.98346 21.9437 5.98332 21.8417 6.01469 21.7477L7.75297 16.5417L11.8057 20.5934ZM17.4112 5.97525C18.778 4.60846 20.9945 4.60856 22.3614 5.97525C23.7281 7.34209 23.7282 9.55864 22.3614 10.9254L14.0205 19.2663C13.8654 19.4209 13.6254 19.4408 13.4493 19.3249L13.378 19.2663L9.07035 14.9586C8.89339 14.7814 8.89351 14.4934 9.07035 14.3161L17.4112 5.97525ZM21.1241 7.21255C20.4406 6.52928 19.3318 6.52918 18.6485 7.21255L17.8379 8.02212L20.3135 10.4977L21.1241 9.68716C21.8071 9.00375 21.8072 7.89585 21.1241 7.21255Z" fill="#4262FF"/>
    <path d="M6.4165 7.72959C7.26499 8.49986 9.24832 9.57824 10.3938 7.72959C11.5392 5.88093 12.8862 6.38161 13.4165 6.86303" stroke="#FFC908" stroke-width="1.75" stroke-linecap="round"/>
    <path d="M26.0667 27C26.5821 27 27 26.5821 27 26.0667V23L23 27H26.0667Z" fill="black" fill-opacity="0.8"/>
</svg>
