<svg width="34" height="34" viewBox="0 0 34 34" fill="none" xmlns="http://www.w3.org/2000/svg">
    <path d="M14.8057 23.5934L9.59476 25.3278C9.35448 25.4078 9.09469 25.278 9.01469 25.0377C8.98346 24.9437 8.98332 24.8417 9.01469 24.7477L10.753 19.5417L14.8057 23.5934ZM20.4112 8.97525C21.778 7.60846 23.9945 7.60856 25.3614 8.97525C26.7281 10.3421 26.7282 12.5586 25.3614 13.9254L17.0205 22.2663C16.8654 22.4209 16.6254 22.4408 16.4493 22.3249L16.378 22.2663L12.0704 17.9586C11.8934 17.7814 11.8935 17.4934 12.0704 17.3161L20.4112 8.97525ZM24.1241 10.2126C23.4406 9.52928 22.3318 9.52918 21.6485 10.2126L20.8379 11.0221L23.3135 13.4977L24.1241 12.6872C24.8071 12.0037 24.8072 10.8958 24.1241 10.2126Z" fill="#4262FF"/>
    <path d="M9.4165 10.7296C10.265 11.4999 12.2483 12.5782 13.3938 10.7296C14.5392 8.88093 15.8862 9.38161 16.4165 9.86303" stroke="#FFC908" stroke-width="1.75" stroke-linecap="round"/>
    <path d="M29.0667 30C29.5821 30 30 29.5821 30 29.0667V26L26 30H29.0667Z" fill="black" fill-opacity="0.8"/>
</svg>
