<svg width="28" height="28" viewBox="0 0 28 28" fill="none" xmlns="http://www.w3.org/2000/svg">
    <path fill-rule="evenodd" clip-rule="evenodd" d="M11.8062 20.5934L6.59529 22.3278C6.355 22.4078 6.09522 22.278 6.01521 22.0377C5.98391 21.9436 5.98382 21.8418 6.01521 21.7477L7.75349 16.5407L11.8062 20.5934ZM17.4117 5.97524C18.7785 4.60846 20.995 4.60856 22.3619 5.97524C23.7284 7.34205 23.7285 9.5577 22.3619 10.9245L14.0211 19.2653C13.8659 19.4202 13.626 19.44 13.4498 19.3239L13.3785 19.2653L9.07087 14.9577C8.89418 14.7804 8.89413 14.4933 9.07087 14.3161L17.4117 5.97524ZM21.1246 7.21255C20.4412 6.52929 19.3324 6.52918 18.649 7.21255L17.8385 8.02212L20.314 10.4977L21.1246 9.68716C21.8077 9.00382 21.8077 7.89593 21.1246 7.21255Z" fill="black" fill-opacity="0.8"/>
    <path d="M6.4165 7.72959C7.26499 8.49986 9.24832 9.57824 10.3938 7.72959C11.5392 5.88093 12.8862 6.38161 13.4165 6.86303" stroke="#FFC908" stroke-width="1.75" stroke-linecap="round"/>
    <path d="M26.0667 27C26.5821 27 27 26.5821 27 26.0667V23L23 27H26.0667Z" fill="black" fill-opacity="0.8"/>
</svg>
