<svg width="34" height="34" viewBox="0 0 34 34" fill="none" xmlns="http://www.w3.org/2000/svg">
    <path fill-rule="evenodd" clip-rule="evenodd" d="M10.8799 11.4809C10.9533 11.4664 11.0296 11.4587 11.1082 11.4587H11.3715C11.6936 11.4587 11.9548 11.1975 11.9548 10.8753C11.9548 10.5532 11.6936 10.292 11.3715 10.292H11.1082C10.9532 10.292 10.801 10.3072 10.6535 10.3364C10.3375 10.3989 10.1319 10.7058 10.1945 11.0218C10.257 11.3379 10.5639 11.5434 10.8799 11.4809ZM12.9508 10.292C12.6287 10.292 12.3675 10.5532 12.3675 10.8753C12.3675 11.1975 12.6287 11.4587 12.9508 11.4587H13.4773C13.7995 11.4587 14.0606 11.1975 14.0606 10.8753C14.0606 10.5532 13.7995 10.292 13.4773 10.292H12.9508ZM15.0567 10.292C14.7345 10.292 14.4733 10.5532 14.4733 10.8753C14.4733 11.1975 14.7345 11.4587 15.0567 11.4587H15.5831C15.9053 11.4587 16.1665 11.1975 16.1665 10.8753C16.1665 10.5532 15.9053 10.292 15.5831 10.292H15.0567ZM17.1625 10.292C16.8403 10.292 16.5792 10.5532 16.5792 10.8753C16.5792 11.1975 16.8403 11.4587 17.1625 11.4587H17.689C18.0111 11.4587 18.2723 11.1975 18.2723 10.8753C18.2723 10.5532 18.0111 10.292 17.689 10.292H17.1625ZM19.2683 10.292C18.9462 10.292 18.685 10.5532 18.685 10.8753C18.685 11.1975 18.9462 11.4587 19.2683 11.4587H19.7948C20.117 11.4587 20.3781 11.1975 20.3781 10.8753C20.3781 10.5532 20.117 10.292 19.7948 10.292H19.2683ZM21.3742 10.292C21.052 10.292 20.7908 10.5532 20.7908 10.8753C20.7908 11.1975 21.052 11.4587 21.3742 11.4587H21.6374C21.7161 11.4587 21.7924 11.4664 21.8657 11.4809C22.1818 11.5434 22.4887 11.3379 22.5512 11.0218C22.6137 10.7058 22.4082 10.3989 22.0921 10.3364C21.9446 10.3072 21.7925 10.292 21.6374 10.292H21.3742ZM23.9263 12.1706C23.8638 11.8545 23.5569 11.649 23.2409 11.7115C22.9248 11.7741 22.7193 12.081 22.7818 12.397C22.7964 12.4704 22.8041 12.5467 22.8041 12.6253V12.9753C22.8041 13.2975 23.0652 13.5587 23.3874 13.5587C23.7096 13.5587 23.9707 13.2975 23.9707 12.9753V12.6253C23.9707 12.4702 23.9555 12.3181 23.9263 12.1706ZM9.96379 12.397C10.0263 12.081 9.82079 11.7741 9.50475 11.7115C9.18871 11.649 8.88182 11.8545 8.8193 12.1706C8.79011 12.3181 8.7749 12.4702 8.7749 12.6253V12.9535C8.7749 13.2756 9.03607 13.5368 9.35824 13.5368C9.6804 13.5368 9.94157 13.2756 9.94157 12.9535V12.6253C9.94157 12.5467 9.94927 12.4704 9.96379 12.397ZM9.94157 14.9222C9.94157 14.6 9.6804 14.3389 9.35824 14.3389C9.03607 14.3389 8.7749 14.6 8.7749 14.9222V15.5785C8.7749 15.9006 9.03607 16.1618 9.35824 16.1618C9.6804 16.1618 9.94157 15.9006 9.94157 15.5785V14.9222ZM23.9707 15.0753C23.9707 14.7532 23.7096 14.492 23.3874 14.492C23.0652 14.492 22.8041 14.7532 22.8041 15.0753V15.4253C22.8041 15.7475 23.0652 16.0087 23.3874 16.0087C23.7096 16.0087 23.9707 15.7475 23.9707 15.4253V15.0753ZM9.94157 17.5472C9.94157 17.225 9.6804 16.9639 9.35824 16.9639C9.03607 16.9639 8.7749 17.225 8.7749 17.5472V18.2035C8.7749 18.5256 9.03607 18.7868 9.35824 18.7868C9.6804 18.7868 9.94157 18.5256 9.94157 18.2035V17.5472ZM9.94157 20.1722C9.94157 19.85 9.6804 19.5889 9.35824 19.5889C9.03607 19.5889 8.7749 19.85 8.7749 20.1722V20.5003C8.7749 20.6554 8.79011 20.8075 8.8193 20.9551C8.88182 21.2711 9.18871 21.4766 9.50475 21.4141C9.82079 21.3516 10.0263 21.0447 9.96379 20.7287C9.94927 20.6553 9.94157 20.579 9.94157 20.5003V20.1722ZM10.8799 21.6448C10.5639 21.5823 10.257 21.7878 10.1945 22.1038C10.1319 22.4198 10.3375 22.7267 10.6535 22.7893C10.801 22.8184 10.9531 22.8337 11.1082 22.8337H11.3513C11.6735 22.8337 11.9346 22.5725 11.9346 22.2503C11.9346 21.9282 11.6735 21.667 11.3513 21.667H11.1082C11.0296 21.667 10.9533 21.6593 10.8799 21.6448ZM12.8096 21.667C12.4875 21.667 12.2263 21.9282 12.2263 22.2503C12.2263 22.5725 12.4875 22.8337 12.8096 22.8337H13.2957C13.6179 22.8337 13.8791 22.5725 13.8791 22.2503C13.8791 21.9282 13.6179 21.667 13.2957 21.667H12.8096ZM14.7541 21.667C14.4319 21.667 14.1707 21.9282 14.1707 22.2503C14.1707 22.5725 14.4319 22.8337 14.7541 22.8337H15.2402C15.5623 22.8337 15.8235 22.5725 15.8235 22.2503C15.8235 21.9282 15.5623 21.667 15.2402 21.667H14.7541ZM16.6985 21.667C16.3763 21.667 16.1152 21.9282 16.1152 22.2503C16.1152 22.5725 16.3763 22.8337 16.6985 22.8337H16.9416C17.2637 22.8337 17.5249 22.5725 17.5249 22.2503C17.5249 21.9282 17.2637 21.667 16.9416 21.667H16.6985ZM20.3463 25.6841L17.623 17.3886C17.4929 16.9921 17.7088 16.5651 18.1053 16.435C18.2606 16.384 18.4283 16.3847 18.5832 16.4372L26.8405 19.2317C27.2358 19.3654 27.4478 19.7943 27.3141 20.1896C27.244 20.3966 27.0878 20.5631 26.8858 20.6462L23.377 22.0895C23.229 22.1504 23.1124 22.2692 23.0544 22.4184L21.7684 25.7225C21.617 26.1114 21.179 26.304 20.7901 26.1526C20.5796 26.0706 20.4167 25.8988 20.3463 25.6841Z" fill="black" fill-opacity="0.8"/>
</svg>
