<svg width="28" height="28" viewBox="0 0 28 28" fill="none" xmlns="http://www.w3.org/2000/svg">
    <path fill-rule="evenodd" clip-rule="evenodd" d="M7.87991 8.48088C7.95329 8.46636 8.02957 8.45866 8.10824 8.45866H8.37147C8.69363 8.45866 8.9548 8.19749 8.9548 7.87533C8.9548 7.55316 8.69363 7.29199 8.37147 7.29199H8.10824C7.95315 7.29199 7.80104 7.3072 7.6535 7.33639C7.33746 7.39891 7.13194 7.7058 7.19446 8.02184C7.25698 8.33788 7.56387 8.5434 7.87991 8.48088ZM9.95084 7.29199C9.62867 7.29199 9.36751 7.55316 9.36751 7.87533C9.36751 8.19749 9.62867 8.45866 9.95084 8.45866H10.4773C10.7995 8.45866 11.0606 8.19749 11.0606 7.87533C11.0606 7.55316 10.7995 7.29199 10.4773 7.29199H9.95084ZM12.0567 7.29199C11.7345 7.29199 11.4733 7.55316 11.4733 7.87533C11.4733 8.19749 11.7345 8.45866 12.0567 8.45866H12.5831C12.9053 8.45866 13.1665 8.19749 13.1665 7.87533C13.1665 7.55316 12.9053 7.29199 12.5831 7.29199H12.0567ZM14.1625 7.29199C13.8403 7.29199 13.5792 7.55316 13.5792 7.87533C13.5792 8.19749 13.8403 8.45866 14.1625 8.45866H14.689C15.0111 8.45866 15.2723 8.19749 15.2723 7.87533C15.2723 7.55316 15.0111 7.29199 14.689 7.29199H14.1625ZM16.2683 7.29199C15.9462 7.29199 15.685 7.55316 15.685 7.87533C15.685 8.19749 15.9462 8.45866 16.2683 8.45866H16.7948C17.117 8.45866 17.3781 8.19749 17.3781 7.87533C17.3781 7.55316 17.117 7.29199 16.7948 7.29199H16.2683ZM18.3742 7.29199C18.052 7.29199 17.7908 7.55316 17.7908 7.87533C17.7908 8.19749 18.052 8.45866 18.3742 8.45866H18.6374C18.7161 8.45866 18.7924 8.46636 18.8657 8.48088C19.1818 8.5434 19.4887 8.33788 19.5512 8.02184C19.6137 7.7058 19.4082 7.39891 19.0921 7.33639C18.9446 7.3072 18.7925 7.29199 18.6374 7.29199H18.3742ZM20.9263 9.17058C20.8638 8.85454 20.5569 8.64903 20.2409 8.71155C19.9248 8.77407 19.7193 9.08096 19.7818 9.397C19.7964 9.47038 19.8041 9.54666 19.8041 9.62532V9.97532C19.8041 10.2975 20.0652 10.5587 20.3874 10.5587C20.7096 10.5587 20.9707 10.2975 20.9707 9.97532V9.62532C20.9707 9.47024 20.9555 9.31813 20.9263 9.17058ZM6.96379 9.397C7.02631 9.08096 6.82079 8.77407 6.50475 8.71155C6.18871 8.64903 5.88182 8.85454 5.8193 9.17058C5.79011 9.31813 5.7749 9.47024 5.7749 9.62533V9.95345C5.7749 10.2756 6.03607 10.5368 6.35824 10.5368C6.6804 10.5368 6.94157 10.2756 6.94157 9.95345V9.62533C6.94157 9.54666 6.94927 9.47038 6.96379 9.397ZM6.94157 11.9222C6.94157 11.6 6.6804 11.3389 6.35824 11.3389C6.03607 11.3389 5.7749 11.6 5.7749 11.9222V12.5785C5.7749 12.9006 6.03607 13.1618 6.35824 13.1618C6.6804 13.1618 6.94157 12.9006 6.94157 12.5785V11.9222ZM20.9707 12.0753C20.9707 11.7532 20.7096 11.492 20.3874 11.492C20.0652 11.492 19.8041 11.7532 19.8041 12.0753V12.4253C19.8041 12.7475 20.0652 13.0087 20.3874 13.0087C20.7096 13.0087 20.9707 12.7475 20.9707 12.4253V12.0753ZM6.94157 14.5472C6.94157 14.225 6.6804 13.9639 6.35824 13.9639C6.03607 13.9639 5.7749 14.225 5.7749 14.5472V15.2035C5.7749 15.5256 6.03607 15.7868 6.35824 15.7868C6.6804 15.7868 6.94157 15.5256 6.94157 15.2035V14.5472ZM6.94157 17.1722C6.94157 16.85 6.6804 16.5889 6.35824 16.5889C6.03607 16.5889 5.7749 16.85 5.7749 17.1722V17.5003C5.7749 17.6554 5.79011 17.8075 5.8193 17.9551C5.88182 18.2711 6.18871 18.4766 6.50475 18.4141C6.82079 18.3516 7.02631 18.0447 6.96379 17.7287C6.94927 17.6553 6.94157 17.579 6.94157 17.5003V17.1722ZM7.87991 18.6448C7.56387 18.5823 7.25698 18.7878 7.19446 19.1038C7.13194 19.4198 7.33745 19.7267 7.6535 19.7893C7.80104 19.8184 7.95315 19.8337 8.10824 19.8337H8.35129C8.67346 19.8337 8.93462 19.5725 8.93462 19.2503C8.93462 18.9282 8.67346 18.667 8.35129 18.667H8.10824C8.02957 18.667 7.95329 18.6593 7.87991 18.6448ZM9.80962 18.667C9.48746 18.667 9.22629 18.9282 9.22629 19.2503C9.22629 19.5725 9.48746 19.8337 9.80962 19.8337H10.2957C10.6179 19.8337 10.8791 19.5725 10.8791 19.2503C10.8791 18.9282 10.6179 18.667 10.2957 18.667H9.80962ZM11.7541 18.667C11.4319 18.667 11.1707 18.9282 11.1707 19.2503C11.1707 19.5725 11.4319 19.8337 11.7541 19.8337H12.2402C12.5623 19.8337 12.8235 19.5725 12.8235 19.2503C12.8235 18.9282 12.5623 18.667 12.2402 18.667H11.7541ZM13.6985 18.667C13.3763 18.667 13.1152 18.9282 13.1152 19.2503C13.1152 19.5725 13.3763 19.8337 13.6985 19.8337H13.9416C14.2637 19.8337 14.5249 19.5725 14.5249 19.2503C14.5249 18.9282 14.2637 18.667 13.9416 18.667H13.6985ZM17.3463 22.6841L14.623 14.3886C14.4929 13.9921 14.7088 13.5651 15.1053 13.435C15.2606 13.384 15.4283 13.3847 15.5832 13.4372L23.8405 16.2317C24.2358 16.3654 24.4478 16.7943 24.3141 17.1896C24.244 17.3966 24.0878 17.5631 23.8858 17.6462L20.377 19.0895C20.229 19.1504 20.1124 19.2692 20.0544 19.4184L18.7684 22.7225C18.617 23.1114 18.179 23.304 17.7901 23.1526C17.5796 23.0706 17.4167 22.8988 17.3463 22.6841Z" fill="black" fill-opacity="0.8"/>
</svg>
